<svg xmlns="http://www.w3.org/2000/svg" width="150" viewBox="0 0 150 75" height="75" version="1.0"><defs><clipPath id="a"><path d="M 1.5 31 L 28 31 L 28 53 L 1.5 53 Z M 1.5 31"/></clipPath><clipPath id="b"><path d="M 43 52 L 49 52 L 49 65.25 L 43 65.25 Z M 43 52"/></clipPath><clipPath id="c"><path d="M 20 7.5 L 41 7.5 L 41 24 L 20 24 Z M 20 7.5"/></clipPath><clipPath id="d"><path d="M 27 49 L 34 49 L 34 65.25 L 27 65.25 Z M 27 49"/></clipPath></defs><g clip-path="url(#a)"><path fill="#395113" d="M 13.574219 32.53125 C 14.175781 31.625 15.5 31.625 16.101562 32.53125 L 21.949219 41.347656 L 27.488281 49.6875 C 28.160156 50.703125 27.4375 52.0625 26.222656 52.0625 L 3.449219 52.0625 C 2.238281 52.0625 1.515625 50.703125 2.191406 49.6875 L 7.726562 41.347656 L 13.574219 32.53125"/></g><path fill="#51741E" d="M 13.730469 23.605469 C 14.257812 22.8125 15.417969 22.8125 15.945312 23.605469 L 21.082031 31.347656 L 25.945312 38.671875 C 26.535156 39.558594 25.902344 40.753906 24.835938 40.753906 L 4.839844 40.753906 C 3.773438 40.753906 3.140625 39.558594 3.730469 38.671875 L 8.59375 31.347656 L 13.730469 23.605469"/><path fill="#6E9D2B" d="M 14 17.375 C 14.398438 16.773438 15.273438 16.773438 15.675781 17.375 L 19.550781 23.214844 L 23.222656 28.746094 C 23.667969 29.417969 23.1875 30.316406 22.386719 30.316406 L 7.289062 30.316406 C 6.488281 30.316406 6.007812 29.417969 6.453125 28.746094 L 10.125 23.214844 L 14 17.375"/><path fill="#A46638" d="M 17.734375 64.960938 L 12.109375 64.960938 L 12.109375 52.0625 L 17.734375 52.0625 L 17.734375 64.960938"/><path fill="#395113" d="M 44.621094 32.820312 C 45.222656 31.914062 46.542969 31.914062 47.144531 32.820312 L 52.996094 41.636719 L 58.535156 49.976562 C 59.207031 50.992188 58.484375 52.351562 57.269531 52.351562 L 34.496094 52.351562 C 33.285156 52.351562 32.5625 50.992188 33.234375 49.976562 L 38.773438 41.636719 L 44.621094 32.820312"/><path fill="#51741E" d="M 44.777344 23.894531 C 45.300781 23.101562 46.464844 23.101562 46.988281 23.894531 L 52.125 31.632812 L 56.992188 38.960938 C 57.578125 39.847656 56.949219 41.042969 55.882812 41.042969 L 35.886719 41.042969 C 34.820312 41.042969 34.1875 39.847656 34.777344 38.960938 L 39.640625 31.632812 L 44.777344 23.894531"/><path fill="#6E9D2B" d="M 45.046875 17.664062 C 45.445312 17.0625 46.320312 17.0625 46.71875 17.664062 L 50.597656 23.503906 L 54.269531 29.035156 C 54.714844 29.707031 54.234375 30.605469 53.433594 30.605469 L 38.335938 30.605469 C 37.53125 30.605469 37.050781 29.707031 37.5 29.035156 L 41.167969 23.503906 L 45.046875 17.664062"/><g clip-path="url(#b)"><path fill="#A46638" d="M 48.777344 65.25 L 43.15625 65.25 L 43.15625 52.351562 L 48.777344 52.351562 L 48.777344 65.25"/></g><path fill="#456319" d="M 28.847656 26.382812 C 29.566406 25.296875 31.152344 25.296875 31.871094 26.382812 L 38.882812 36.945312 L 45.519531 46.945312 C 46.324219 48.160156 45.460938 49.785156 44.007812 49.785156 L 16.710938 49.785156 C 15.261719 49.785156 14.390625 48.160156 15.199219 46.945312 L 21.835938 36.945312 L 28.847656 26.382812"/><path fill="#608925" d="M 29.03125 15.683594 C 29.664062 14.730469 31.054688 14.730469 31.6875 15.683594 L 37.847656 24.960938 L 43.671875 33.738281 C 44.378906 34.808594 43.621094 36.234375 42.34375 36.234375 L 18.375 36.234375 C 17.101562 36.234375 16.339844 34.808594 17.046875 33.738281 L 22.875 24.960938 L 29.03125 15.683594"/><g clip-path="url(#c)"><path fill="#6E9D2B" d="M 29.355469 8.210938 C 29.835938 7.496094 30.886719 7.496094 31.363281 8.210938 L 36.011719 15.214844 L 40.410156 21.84375 C 40.945312 22.648438 40.371094 23.726562 39.40625 23.726562 L 21.3125 23.726562 C 20.351562 23.726562 19.777344 22.648438 20.3125 21.84375 L 24.710938 15.214844 L 29.355469 8.210938"/></g><g clip-path="url(#d)"><path fill="#A46638" d="M 33.832031 65.25 L 27.09375 65.25 L 27.09375 49.785156 L 33.832031 49.785156 L 33.832031 65.25"/></g><g fill="#608925"><g><g><path d="M 7.734375 0.203125 C 6.359375 0.203125 5.128906 -0.0664062 4.046875 -0.609375 C 2.960938 -1.160156 2.117188 -1.925781 1.515625 -2.90625 C 0.921875 -3.882812 0.625 -4.988281 0.625 -6.21875 C 0.625 -7.457031 0.921875 -8.5625 1.515625 -9.53125 C 2.117188 -10.5 2.960938 -11.253906 4.046875 -11.796875 C 5.128906 -12.335938 6.359375 -12.609375 7.734375 -12.609375 C 9.140625 -12.609375 10.351562 -12.304688 11.375 -11.703125 C 12.394531 -11.097656 13.117188 -10.265625 13.546875 -9.203125 L 10.171875 -7.484375 C 9.609375 -8.597656 8.785156 -9.15625 7.703125 -9.15625 C 6.929688 -9.15625 6.289062 -8.894531 5.78125 -8.375 C 5.269531 -7.851562 5.015625 -7.132812 5.015625 -6.21875 C 5.015625 -5.289062 5.269531 -4.5625 5.78125 -4.03125 C 6.289062 -3.507812 6.929688 -3.25 7.703125 -3.25 C 8.785156 -3.25 9.609375 -3.804688 10.171875 -4.921875 L 13.546875 -3.203125 C 13.117188 -2.128906 12.394531 -1.289062 11.375 -0.6875 C 10.351562 -0.09375 9.140625 0.203125 7.734375 0.203125 Z M 7.734375 0.203125" transform="translate(62.724 34.788)"/></g></g></g><g fill="#608925"><g><g><path d="M 6.671875 -12.609375 C 8.734375 -12.609375 10.304688 -12.140625 11.390625 -11.203125 C 12.472656 -10.265625 13.015625 -8.828125 13.015625 -6.890625 L 13.015625 0 L 8.96875 0 L 8.96875 -1.59375 C 8.34375 -0.394531 7.125 0.203125 5.3125 0.203125 C 4.34375 0.203125 3.507812 0.0351562 2.8125 -0.296875 C 2.113281 -0.628906 1.582031 -1.082031 1.21875 -1.65625 C 0.863281 -2.226562 0.6875 -2.878906 0.6875 -3.609375 C 0.6875 -4.785156 1.132812 -5.695312 2.03125 -6.34375 C 2.9375 -6.988281 4.328125 -7.3125 6.203125 -7.3125 L 8.671875 -7.3125 C 8.597656 -8.625 7.71875 -9.28125 6.03125 -9.28125 C 5.4375 -9.28125 4.832031 -9.1875 4.21875 -9 C 3.613281 -8.8125 3.097656 -8.550781 2.671875 -8.21875 L 1.21875 -11.15625 C 1.894531 -11.613281 2.722656 -11.96875 3.703125 -12.21875 C 4.691406 -12.476562 5.679688 -12.609375 6.671875 -12.609375 Z M 6.515625 -2.546875 C 7.023438 -2.546875 7.46875 -2.664062 7.84375 -2.90625 C 8.226562 -3.144531 8.503906 -3.503906 8.671875 -3.984375 L 8.671875 -5.0625 L 6.796875 -5.0625 C 5.523438 -5.0625 4.890625 -4.640625 4.890625 -3.796875 C 4.890625 -3.410156 5.035156 -3.101562 5.328125 -2.875 C 5.617188 -2.65625 6.015625 -2.546875 6.515625 -2.546875 Z M 6.515625 -2.546875" transform="translate(76.518 34.788)"/></g></g></g><g fill="#608925"><g><g><path d="M 5.53125 -10.90625 C 5.976562 -11.46875 6.554688 -11.890625 7.265625 -12.171875 C 7.972656 -12.460938 8.785156 -12.609375 9.703125 -12.609375 L 9.703125 -8.6875 C 9.304688 -8.738281 8.976562 -8.765625 8.71875 -8.765625 C 7.78125 -8.765625 7.046875 -8.507812 6.515625 -8 C 5.992188 -7.5 5.734375 -6.734375 5.734375 -5.703125 L 5.734375 0 L 1.390625 0 L 1.390625 -12.390625 L 5.53125 -12.390625 Z M 5.53125 -10.90625" transform="translate(90.883 34.788)"/></g></g></g><g fill="#608925"><g><g><path d="M 9.203125 -12.609375 C 10.328125 -12.609375 11.347656 -12.347656 12.265625 -11.828125 C 13.191406 -11.304688 13.925781 -10.5625 14.46875 -9.59375 C 15.007812 -8.625 15.28125 -7.5 15.28125 -6.21875 C 15.28125 -4.9375 15.007812 -3.804688 14.46875 -2.828125 C 13.925781 -1.859375 13.191406 -1.109375 12.265625 -0.578125 C 11.347656 -0.0546875 10.328125 0.203125 9.203125 0.203125 C 7.566406 0.203125 6.34375 -0.273438 5.53125 -1.234375 L 5.53125 0 L 1.390625 0 L 1.390625 -16.96875 L 5.734375 -16.96875 L 5.734375 -11.328125 C 6.578125 -12.179688 7.734375 -12.609375 9.203125 -12.609375 Z M 8.28125 -3.25 C 9.039062 -3.25 9.664062 -3.507812 10.15625 -4.03125 C 10.644531 -4.5625 10.890625 -5.289062 10.890625 -6.21875 C 10.890625 -7.132812 10.644531 -7.851562 10.15625 -8.375 C 9.664062 -8.894531 9.039062 -9.15625 8.28125 -9.15625 C 7.519531 -9.15625 6.894531 -8.894531 6.40625 -8.375 C 5.914062 -7.851562 5.671875 -7.132812 5.671875 -6.21875 C 5.671875 -5.289062 5.914062 -4.5625 6.40625 -4.03125 C 6.894531 -3.507812 7.519531 -3.25 8.28125 -3.25 Z M 8.28125 -3.25" transform="translate(101.017 34.788)"/></g></g></g><g fill="#608925"><g><g><path d="M 7.625 0.203125 C 6.289062 0.203125 5.085938 -0.0664062 4.015625 -0.609375 C 2.953125 -1.160156 2.117188 -1.925781 1.515625 -2.90625 C 0.921875 -3.882812 0.625 -4.988281 0.625 -6.21875 C 0.625 -7.4375 0.921875 -8.535156 1.515625 -9.515625 C 2.117188 -10.492188 2.953125 -11.253906 4.015625 -11.796875 C 5.078125 -12.335938 6.28125 -12.609375 7.625 -12.609375 C 8.957031 -12.609375 10.15625 -12.335938 11.21875 -11.796875 C 12.289062 -11.253906 13.125 -10.5 13.71875 -9.53125 C 14.3125 -8.5625 14.609375 -7.457031 14.609375 -6.21875 C 14.609375 -4.988281 14.3125 -3.882812 13.71875 -2.90625 C 13.125 -1.925781 12.289062 -1.160156 11.21875 -0.609375 C 10.15625 -0.0664062 8.957031 0.203125 7.625 0.203125 Z M 7.625 -3.25 C 8.382812 -3.25 9.003906 -3.507812 9.484375 -4.03125 C 9.972656 -4.5625 10.21875 -5.289062 10.21875 -6.21875 C 10.21875 -7.132812 9.972656 -7.851562 9.484375 -8.375 C 9.003906 -8.894531 8.382812 -9.15625 7.625 -9.15625 C 6.851562 -9.15625 6.222656 -8.894531 5.734375 -8.375 C 5.253906 -7.851562 5.015625 -7.132812 5.015625 -6.21875 C 5.015625 -5.289062 5.253906 -4.5625 5.734375 -4.03125 C 6.222656 -3.507812 6.851562 -3.25 7.625 -3.25 Z M 7.625 -3.25" transform="translate(116.915 34.788)"/></g></g></g><g fill="#608925"><g><g><path d="M 9.46875 -12.609375 C 11.007812 -12.609375 12.25 -12.148438 13.1875 -11.234375 C 14.125 -10.316406 14.59375 -8.9375 14.59375 -7.09375 L 14.59375 0 L 10.25 0 L 10.25 -6.375 C 10.25 -8.070312 9.570312 -8.921875 8.21875 -8.921875 C 7.46875 -8.921875 6.863281 -8.675781 6.40625 -8.1875 C 5.957031 -7.695312 5.734375 -6.96875 5.734375 -6 L 5.734375 0 L 1.390625 0 L 1.390625 -12.390625 L 5.53125 -12.390625 L 5.53125 -11.046875 C 6.019531 -11.546875 6.597656 -11.929688 7.265625 -12.203125 C 7.941406 -12.472656 8.675781 -12.609375 9.46875 -12.609375 Z M 9.46875 -12.609375" transform="translate(132.15 34.788)"/></g></g></g><g fill="#A46638"><g><g><path d="M 9.203125 -12.609375 C 10.328125 -12.609375 11.347656 -12.347656 12.265625 -11.828125 C 13.191406 -11.304688 13.925781 -10.5625 14.46875 -9.59375 C 15.007812 -8.625 15.28125 -7.5 15.28125 -6.21875 C 15.28125 -4.9375 15.007812 -3.804688 14.46875 -2.828125 C 13.925781 -1.859375 13.191406 -1.109375 12.265625 -0.578125 C 11.347656 -0.0546875 10.328125 0.203125 9.203125 0.203125 C 7.566406 0.203125 6.34375 -0.273438 5.53125 -1.234375 L 5.53125 0 L 1.390625 0 L 1.390625 -16.96875 L 5.734375 -16.96875 L 5.734375 -11.328125 C 6.578125 -12.179688 7.734375 -12.609375 9.203125 -12.609375 Z M 8.28125 -3.25 C 9.039062 -3.25 9.664062 -3.507812 10.15625 -4.03125 C 10.644531 -4.5625 10.890625 -5.289062 10.890625 -6.21875 C 10.890625 -7.132812 10.644531 -7.851562 10.15625 -8.375 C 9.664062 -8.894531 9.039062 -9.15625 8.28125 -9.15625 C 7.519531 -9.15625 6.894531 -8.894531 6.40625 -8.375 C 5.914062 -7.851562 5.671875 -7.132812 5.671875 -6.21875 C 5.671875 -5.289062 5.914062 -4.5625 6.40625 -4.03125 C 6.894531 -3.507812 7.519531 -3.25 8.28125 -3.25 Z M 8.28125 -3.25" transform="translate(62.715 57.917)"/></g></g></g><g fill="#A46638"><g><g><path d="M 6.671875 -12.609375 C 8.734375 -12.609375 10.304688 -12.140625 11.390625 -11.203125 C 12.472656 -10.265625 13.015625 -8.828125 13.015625 -6.890625 L 13.015625 0 L 8.96875 0 L 8.96875 -1.59375 C 8.34375 -0.394531 7.125 0.203125 5.3125 0.203125 C 4.34375 0.203125 3.507812 0.0351562 2.8125 -0.296875 C 2.113281 -0.628906 1.582031 -1.082031 1.21875 -1.65625 C 0.863281 -2.226562 0.6875 -2.878906 0.6875 -3.609375 C 0.6875 -4.785156 1.132812 -5.695312 2.03125 -6.34375 C 2.9375 -6.988281 4.328125 -7.3125 6.203125 -7.3125 L 8.671875 -7.3125 C 8.597656 -8.625 7.71875 -9.28125 6.03125 -9.28125 C 5.4375 -9.28125 4.832031 -9.1875 4.21875 -9 C 3.613281 -8.8125 3.097656 -8.550781 2.671875 -8.21875 L 1.21875 -11.15625 C 1.894531 -11.613281 2.722656 -11.96875 3.703125 -12.21875 C 4.691406 -12.476562 5.679688 -12.609375 6.671875 -12.609375 Z M 6.515625 -2.546875 C 7.023438 -2.546875 7.46875 -2.664062 7.84375 -2.90625 C 8.226562 -3.144531 8.503906 -3.503906 8.671875 -3.984375 L 8.671875 -5.0625 L 6.796875 -5.0625 C 5.523438 -5.0625 4.890625 -4.640625 4.890625 -3.796875 C 4.890625 -3.410156 5.035156 -3.101562 5.328125 -2.875 C 5.617188 -2.65625 6.015625 -2.546875 6.515625 -2.546875 Z M 6.515625 -2.546875" transform="translate(78.613 57.917)"/></g></g></g><g fill="#A46638"><g><g><path d="M 7.734375 0.203125 C 6.359375 0.203125 5.128906 -0.0664062 4.046875 -0.609375 C 2.960938 -1.160156 2.117188 -1.925781 1.515625 -2.90625 C 0.921875 -3.882812 0.625 -4.988281 0.625 -6.21875 C 0.625 -7.457031 0.921875 -8.5625 1.515625 -9.53125 C 2.117188 -10.5 2.960938 -11.253906 4.046875 -11.796875 C 5.128906 -12.335938 6.359375 -12.609375 7.734375 -12.609375 C 9.140625 -12.609375 10.351562 -12.304688 11.375 -11.703125 C 12.394531 -11.097656 13.117188 -10.265625 13.546875 -9.203125 L 10.171875 -7.484375 C 9.609375 -8.597656 8.785156 -9.15625 7.703125 -9.15625 C 6.929688 -9.15625 6.289062 -8.894531 5.78125 -8.375 C 5.269531 -7.851562 5.015625 -7.132812 5.015625 -6.21875 C 5.015625 -5.289062 5.269531 -4.5625 5.78125 -4.03125 C 6.289062 -3.507812 6.929688 -3.25 7.703125 -3.25 C 8.785156 -3.25 9.609375 -3.804688 10.171875 -4.921875 L 13.546875 -3.203125 C 13.117188 -2.128906 12.394531 -1.289062 11.375 -0.6875 C 10.351562 -0.09375 9.140625 0.203125 7.734375 0.203125 Z M 7.734375 0.203125" transform="translate(92.979 57.917)"/></g></g></g><g fill="#A46638"><g><g><path d="M 7.015625 -4.34375 L 5.734375 -3.046875 L 5.734375 0 L 1.390625 0 L 1.390625 -16.96875 L 5.734375 -16.96875 L 5.734375 -8.078125 L 10.171875 -12.390625 L 15.328125 -12.390625 L 10.171875 -7.09375 L 15.765625 0 L 10.5 0 Z M 7.015625 -4.34375" transform="translate(106.772 57.917)"/></g></g></g></svg>